<svg width="27" height="27" viewBox="0 0 27 27" fill="none" xmlns="http://www.w3.org/2000/svg">
<g clip-path="url(#clip0_32854_4493)">
<path d="M13.3096 25.1309C19.5508 25.1309 24.6855 19.9961 24.6855 13.7549C24.6855 7.50293 19.5508 2.36816 13.2988 2.36816C7.04688 2.36816 1.92285 7.50293 1.92285 13.7549C1.92285 19.9961 7.05762 25.1309 13.3096 25.1309ZM13.2988 10.3066C12.375 10.3066 11.6016 9.5332 11.6016 8.60938C11.6016 7.65332 12.375 6.90137 13.2988 6.90137C14.2227 6.90137 14.9854 7.65332 14.9854 8.60938C14.9854 9.5332 14.2227 10.3066 13.2988 10.3066ZM11.2578 19.8027C10.6562 19.8027 10.1836 19.3838 10.1836 18.75C10.1836 18.1807 10.6562 17.7188 11.2578 17.7188H12.4932V13.8945H11.4727C10.8604 13.8945 10.3984 13.4648 10.3984 12.8525C10.3984 12.2725 10.8604 11.8213 11.4727 11.8213H13.6748C14.4482 11.8213 14.8457 12.3477 14.8457 13.1641V17.7188H15.8232C16.4248 17.7188 16.8975 18.1807 16.8975 18.75C16.8975 19.3838 16.4248 19.8027 15.8232 19.8027H11.2578Z" fill="white"/>
</g>
<defs>
<clipPath id="clip0_32854_4493">
<rect width="27" height="26" fill="white" transform="translate(0 0.5)"/>
</clipPath>
</defs>
</svg>
