<svg width="12" height="15" viewBox="0 0 12 15" fill="none" xmlns="http://www.w3.org/2000/svg">
<path d="M5.87135 0.247437C5.25835 0.247437 4.84968 0.70753 4.84968 1.38672V9.33977L4.91098 10.9245L3.63048 9.33247L2.07754 7.66736C1.89364 7.47018 1.65525 7.32412 1.34875 7.32412C0.797047 7.32412 0.374756 7.755 0.374756 8.38307C0.374756 8.66789 0.483734 8.9381 0.69488 9.1718L5.11531 13.9188C5.30603 14.1233 5.59209 14.2474 5.87135 14.2474C6.15061 14.2474 6.43668 14.1233 6.62739 13.9188L11.0546 9.1718C11.2658 8.9381 11.3748 8.66789 11.3748 8.38307C11.3748 7.755 10.9525 7.32412 10.4008 7.32412C10.0943 7.32412 9.85587 7.47018 9.66516 7.66736L8.11222 9.33247L6.83172 10.9245L6.89983 9.33977V1.38672C6.89983 0.70753 6.48435 0.247437 5.87135 0.247437Z" fill="#8E8E93"/>
</svg>
